<svg width="30" height="30" viewBox="0 0 30 30" fill="none" xmlns="http://www.w3.org/2000/svg">
<g clip-path="url(#clip0_26_149)">
<path d="M15 28.125C11.519 28.125 8.18064 26.7422 5.71922 24.2808C3.25781 21.8194 1.875 18.481 1.875 15C1.875 11.519 3.25781 8.18064 5.71922 5.71922C8.18064 3.25781 11.519 1.875 15 1.875C18.481 1.875 21.8194 3.25781 24.2808 5.71922C26.7422 8.18064 28.125 11.519 28.125 15C28.125 18.481 26.7422 21.8194 24.2808 24.2808C21.8194 26.7422 18.481 28.125 15 28.125ZM15 30C18.9782 30 22.7936 28.4196 25.6066 25.6066C28.4196 22.7936 30 18.9782 30 15C30 11.0218 28.4196 7.20644 25.6066 4.3934C22.7936 1.58035 18.9782 0 15 0C11.0218 0 7.20644 1.58035 4.3934 4.3934C1.58035 7.20644 0 11.0218 0 15C0 18.9782 1.58035 22.7936 4.3934 25.6066C7.20644 28.4196 11.0218 30 15 30Z" fill="#FFCC16"/>
<path d="M20.5687 9.31873L20.5312 9.35998L14.0194 17.6569L10.095 13.7306C9.82842 13.4822 9.47583 13.347 9.11151 13.3534C8.7472 13.3598 8.3996 13.5074 8.14195 13.7651C7.8843 14.0227 7.73672 14.3703 7.73029 14.7346C7.72386 15.0989 7.85909 15.4515 8.10749 15.7181L13.0687 20.6812C13.2024 20.8146 13.3616 20.9198 13.5367 20.9903C13.7119 21.0609 13.8995 21.0955 14.0883 21.092C14.2771 21.0885 14.4632 21.047 14.6357 20.97C14.8081 20.8929 14.9633 20.782 15.0919 20.6437L22.5769 11.2875C22.8317 11.02 22.9711 10.6629 22.9648 10.2935C22.9585 9.92405 22.8071 9.57194 22.5432 9.31328C22.2794 9.05461 21.9243 8.91018 21.5549 8.9112C21.1854 8.91222 20.8312 9.05861 20.5687 9.31873Z" fill="#FFCC16"/>
</g>
<defs>
<clipPath id="clip0_26_149">
<rect width="30" height="30" fill="white"/>
</clipPath>
</defs>
</svg>
