<svg width="190" height="201" viewBox="0 0 190 201" fill="none" xmlns="http://www.w3.org/2000/svg">
<path fill-rule="evenodd" clip-rule="evenodd" d="M190 146.016C172.853 162.418 149.603 172.494 124 172.494C71.26 172.494 28.5057 129.74 28.5057 77C28.5057 45.3981 43.8563 17.3815 67.5078 0H26.798C10.0203 21.1511 0 47.9054 0 77C0 145.483 55.5167 201 124 201C148.257 201 170.887 194.035 190 181.995V146.016ZM190 133.686C174.045 152.246 150.395 164 124 164C75.9512 164 37 125.049 37 77C37 43.5883 55.8345 14.5757 83.4654 0H164.535C174.258 5.12935 182.893 12.0466 190 20.3143V65.4031C184.508 33.9272 157.048 10 124 10C86.9969 10 57 39.9969 57 77C57 114.003 86.9969 144 124 144C157.048 144 184.508 120.073 190 88.5969V133.686ZM190 7.98418C189.991 3.57318 186.413 0 182 0H180.492C183.834 2.45573 187.01 5.12375 190 7.98418ZM124.5 121.011C148.531 121.011 168.011 101.531 168.011 77.5C168.011 53.4693 148.531 33.9885 124.5 33.9885C100.469 33.9885 80.9885 53.4693 80.9885 77.5C80.9885 101.531 100.469 121.011 124.5 121.011ZM124.5 134C155.704 134 181 108.704 181 77.5C181 46.2959 155.704 21 124.5 21C93.2959 21 68 46.2959 68 77.5C68 108.704 93.2959 134 124.5 134Z" fill="white" fill-opacity="0.22"/>
</svg>
